<svg xmlns="http://www.w3.org/2000/svg">
    <symbol id="email" viewBox="0 0 24 24">
        <title id="email-title">Send e-mail</title>
        <path fill-rule="evenodd" clip-rule="evenodd" d="M12 24C18.6274 24 24 18.6274 24 12C24 5.37258 18.6274 0 12 0C5.37258 0 0 5.37258 0 12C0 18.6274 5.37258 24 12 24ZM9.49993 8.25839C10.3656 7.67998 11.405 7.41962 12.4411 7.52167C13.4772 7.62371 14.4458 8.08185 15.182 8.81802L17.3033 6.6967C16.0764 5.46975 14.4619 4.70619 12.7351 4.53611C11.0083 4.36604 9.27596 4.79997 7.83322 5.76398C6.39049 6.72798 5.32664 8.16242 4.82295 9.82287C4.31926 11.4833 4.40689 13.267 5.0709 14.8701C5.73492 16.4732 6.93425 17.7965 8.46453 18.6144C9.9948 19.4324 11.7614 19.6944 13.4632 19.3559C15.165 19.0174 16.6968 18.0992 17.7976 16.7579C18.8984 15.4166 19.5 13.7352 19.5 12V10.5H18H12V13.5H16.2426C16.0698 13.9889 15.8124 14.4479 15.4785 14.8548C14.8181 15.6595 13.899 16.2104 12.8779 16.4135C11.8568 16.6166 10.7969 16.4594 9.87871 15.9686C8.96055 15.4779 8.24095 14.6839 7.84254 13.7221C7.44413 12.7602 7.39155 11.69 7.69377 10.6937C7.99598 9.69745 8.63429 8.83679 9.49993 8.25839Z"/>
    </symbol>
    <symbol id="whatsapp" viewBox="0 0 24 24">
        <title id="whatsapp-title">Chat to WhatsApp</title>
        <path fill-rule="evenodd" clip-rule="evenodd" d="M24 12C24 18.6274 18.6274 24 12 24C5.37258 24 0 18.6274 0 12C0 5.37258 5.37258 0 12 0C18.6274 0 24 5.37258 24 12ZM6.25554 15.6786L6.1423 16.0878L5.46523 18.5347L7.91179 17.8576L8.32136 17.7443L8.68722 17.9604C9.83828 18.6406 11.1493 19 12.4993 19C16.6333 19 20 15.6342 20 11.5C20 7.36445 16.6333 4 12.5007 4C8.36526 4 5 7.36445 5 11.5C5 12.8486 5.35935 14.16 6.03974 15.3129L6.25554 15.6786ZM5.15431 19.6583L4.03068 19.9693L4.3416 18.8457L5.17852 15.8211C4.40725 14.5142 4 13.0273 4 11.5C4 6.81203 7.81311 3 12.5007 3C17.1855 3 21 6.81203 21 11.5C21 16.1866 17.1855 20 12.4993 20C10.9707 20 9.48396 19.5927 8.17852 18.8214L5.15431 19.6583ZM10.8421 13.1577C13.0921 15.4077 15.5585 16.0134 15.5789 15.9998C15.8158 15.8419 16.2291 15.4983 16.5263 15.0524C16.7859 14.663 17 14.1051 17 14.1051L14.6316 12.6841L13.4474 13.3946C13.4474 13.3946 12.8442 13.0282 12.0263 12.2104C11.3158 11.4999 10.6053 10.5525 10.6053 10.5525L11.3158 9.36836L9.89476 7C9.73687 7 9.42108 7 8.71055 7.71051C8.22748 8.19356 8 8.65785 8 8.65785C8 8.65785 8.6611 10.9768 10.8421 13.1577Z"/>
    </symbol>
    <symbol id="github" enable-background="new 0 0 128 128" viewBox="0 0 128 128">
        <title id="github-title">Open repository</title>
        <rect clip-rule="evenodd" fill="none" fill-rule="evenodd" height="128" width="128"/>
        <path clip-rule="evenodd" d="M63.996,1.333C28.656,1.333,0,30.099,0,65.591    c0,28.384,18.336,52.467,43.772,60.965c3.2,0.59,4.368-1.394,4.368-3.096c0-1.526-0.056-5.566-0.088-10.927    c-17.804,3.883-21.56-8.614-21.56-8.614c-2.908-7.421-7.104-9.397-7.104-9.397c-5.812-3.988,0.44-3.907,0.44-3.907    c6.42,0.454,9.8,6.622,9.8,6.622c5.712,9.819,14.98,6.984,18.628,5.337c0.58-4.152,2.236-6.984,4.064-8.59    c-14.212-1.622-29.152-7.132-29.152-31.753c0-7.016,2.492-12.75,6.588-17.244c-0.66-1.626-2.856-8.156,0.624-17.003    c0,0,5.376-1.727,17.6,6.586c5.108-1.426,10.58-2.136,16.024-2.165c5.436,0.028,10.912,0.739,16.024,2.165    c12.216-8.313,17.58-6.586,17.58-6.586c3.492,8.847,1.296,15.377,0.636,17.003c4.104,4.494,6.58,10.228,6.58,17.244    c0,24.681-14.964,30.115-29.22,31.705c2.296,1.984,4.344,5.903,4.344,11.899c0,8.59-0.08,15.517-0.08,17.626    c0,1.719,1.152,3.719,4.4,3.088C109.68,118.034,128,93.967,128,65.591C128,30.099,99.344,1.333,63.996,1.333" fill-rule="evenodd"/>
    </symbol>
    <symbol id="telegram" x="0" y="0" viewBox="0 0 24 24" style="enable-background:new 0 0 512 512">
        <title id="telegram-title">Chat to Telegram</title>
        <path d="m12 24c6.629 0 12-5.371 12-12s-5.371-12-12-12-12 5.371-12 12 5.371 12 12 12zm-6.509-12.26 11.57-4.461c.537-.194 1.006.131.832.943l.001-.001-1.97 9.281c-.146.658-.537.818-1.084.508l-3-2.211-1.447 1.394c-.16.16-.295.295-.605.295l.213-3.053 5.56-5.023c.242-.213-.054-.333-.373-.121l-6.871 4.326-2.962-.924c-.643-.204-.657-.643.136-.953z"/>
    </symbol>
    <symbol id="skype" x="0" y="0" viewBox="0 0 512 512" style="enable-background:new 0 0 512 512">
        <title id="skype-title">Chat to Skype</title>
        <path d="m284.4375 237.761719-35.203125-7.8125c-13.390625-3.050781-28.804687-7.082031-28.804687-19.707031 0-12.652344 10.8125-21.492188 30.332031-21.492188 39.339843 0 35.746093 27.035156 55.277343 27.035156 10.277344 0 19.273438-6.042968 19.273438-16.433594 0-24.246093-38.804688-42.441406-71.722656-42.441406-35.734375 0-73.789063 15.175782-73.789063 55.59375 0 19.464844 6.953125 40.171875 45.257813 49.777344l47.5625 11.875c14.394531 3.546875 17.996094 11.644531 17.996094 18.949219 0 12.148437-12.066407 24.015625-33.925782 24.015625-42.699218 0-36.773437-32.859375-59.65625-32.859375-10.28125 0-17.742187 7.082031-17.742187 17.1875 0 19.703125 23.921875 45.996093 77.398437 45.996093 50.878906 0 76.089844-24.523437 76.089844-57.367187 0-21.207031-9.777344-43.722656-48.34375-52.316406zm0 0"/>
        <path d="m256 0c-141.363281 0-256 114.636719-256 256s114.636719 256 256 256 256-114.636719 256-256-114.636719-256-256-256zm133.285156 388.90625c-16.832031 16.839844-39.199218 26.09375-62.996094 26.09375-15.414062 0-30.507812-4.007812-43.839843-11.550781-8.652344 1.535156-17.515625 2.34375-26.359375 2.34375-20.320313 0-40.039063-3.984375-58.589844-11.847657-17.9375-7.5625-34.027344-18.425781-47.859375-32.25-13.816406-13.820312-24.667969-29.910156-32.242187-47.839843-7.859376-18.5625-11.835938-38.269531-11.835938-58.59375 0-8.703125.78125-17.417969 2.265625-25.945313-7.316406-13.160156-11.210937-28.050781-11.210937-43.203125 0-23.800781 9.273437-46.179687 26.097656-63.007812 16.832031-16.835938 39.210937-26.105469 63.011718-26.105469 14.578126 0 28.984376 3.636719 41.789063 10.445312.023437-.003906.050781-.003906.070313-.011718 9.335937-1.789063 18.925781-2.691406 28.503906-2.691406 20.316406 0 40.03125 3.980468 58.582031 11.828124 17.917969 7.582032 34.027344 18.433594 47.839844 32.253907 13.832031 13.824219 24.679687 29.921875 32.261719 47.847656 7.859374 18.558594 11.835937 38.269531 11.835937 58.589844 0 9.160156-.863281 18.328125-2.507813 27.285156 7.367188 13.210937 11.285157 28.152344 11.285157 43.355469-.003907 23.800781-9.265625 46.183594-26.101563 63.003906zm0 0"/>
    </symbol>
    <symbol id="phone" x="0" y="0" viewBox="0 0 512 512" style="enable-background:new 0 0 512 512">
		<path d="M499.66,376.96l-71.68-71.68c-25.6-25.6-69.12-15.359-79.36,17.92c-7.68,23.041-33.28,35.841-56.32,30.72    c-51.2-12.8-120.32-79.36-133.12-133.12c-7.68-23.041,7.68-48.641,30.72-56.32c33.28-10.24,43.52-53.76,17.92-79.36l-71.68-71.68    c-20.48-17.92-51.2-17.92-69.12,0l-48.64,48.64c-48.64,51.2,5.12,186.88,125.44,307.2c120.32,120.32,256,176.641,307.2,125.44    l48.64-48.64C517.581,425.6,517.581,394.88,499.66,376.96z"/>
    </symbol>
    <symbol id="up" x="0px" y="0px" viewBox="0 0 612 612" style="enable-background:new 0 0 612 612;" xml:space="preserve">
		<path d="M331.742,164.112c-7.172-7.115-16.906-11.112-27.1-11.112c-10.174,0-19.909,3.997-27.1,11.112l-113.469,114.75
					c-14.975,14.822-14.975,38.842,0,53.666c14.975,14.841,39.226,14.841,54.181,0l49.496-50.356v138.962
					c0,20.923,16.964,37.867,37.868,37.867h0.765c20.923,0,37.867-16.944,37.867-37.867V287.965l4.973,0.803l43.013,42.61
					c13.56,13.426,35.267,16.696,50.796,5.604c19.718-14.096,21.344-41.482,4.877-57.796L331.742,164.112z M306,0
					C137.012,0,0,136.992,0,306s137.012,306,306,306c169.008,0,306-136.992,306-306S475.008,0,306,0z M306,535.5
					C179.45,535.5,76.5,432.55,76.5,306S179.45,76.5,306,76.5S535.5,179.45,535.5,306S432.55,535.5,306,535.5z"/>
    </symbol>
    <symbol id="view" version="1.1" viewBox="0 0 44 44" enable-background="new 0 0 44 44">
        <title id="view-title">View demo</title>
        <path d="m22,0c-12.2,0-22,9.8-22,22s9.8,22 22,22 22-9.8 22-22-9.8-22-22-22zm-5.2,24.4l-1.4,1.4c-0.4,0.4-1,0.4-1.4,0l-2.5-2.5c-1.6-1.6-2.5-3.7-2.5-6 0-4.6 3.8-8.4 8.4-8.4 2.2,0 4.4,0.9 6,2.5l2.5,2.5c0.4,0.4 0.4,1 0,1.4l-1.4,1.4c-0.4,0.4-1,0.4-1.4,0l-2.5-2.5c-0.8-0.8-1.9-1.3-3.1-1.3-2.4,0-4.4,2-4.4,4.4 0,1.2 0.5,2.3 1.3,3.1l2.5,2.5c0.2,0.5 0.2,1.1-0.1,1.5zm.5-5.7l1.4-1.4c0.4-0.4 1-0.4 1.4,0l6.6,6.6c0.4,0.4 0.4,1 0,1.4l-1.4,1.4c-0.4,0.4-1,0.4-1.4,0l-6.6-6.6c-0.4-0.4-0.4-1 3.55271e-15-1.4zm9.3,16.3c-2.2,0-4.4-0.9-6-2.5l-2.5-2.5c-0.4-0.4-0.4-1 0-1.4l1.4-1.4c0.4-0.4 1-0.4 1.4,0l2.5,2.5c0.8,0.8 1.9,1.3 3.1,1.3 2.4,0 4.4-2 4.4-4.4 0-1.2-0.5-2.3-1.3-3.1l-2.5-2.5c-0.4-0.4-0.4-1 0-1.4l1.4-1.4c0.4-0.4 1-0.4 1.4,0l2.5,2.5c1.6,1.6 2.5,3.7 2.5,6 0.1,4.5-3.7,8.3-8.3,8.3z"/>
    </symbol>
</svg>